# xmcd CD database file generated by Grip 3.3.1
# 
# Track frame offsets:
#       150
#       14805
#       33162
#       52426
#       72197
#       92080
#       114474
#       131539
#       144972
#       164847
#       179636
#       193985
# 
# Disc length: 2792 seconds
# 
# Revision: 1
# Processed by: cddbd v1.5.2PL0 Copyright (c) Steve Scherf et al.
# Submitted via: Grip 3.3.1
# 
DISCID=ba0ae60c
DTITLE=Rudy Rotta  Band - The Beatles in Blues
DYEAR=2008
DGENRE=Blues
TTITLE0=Love me do
TTITLE1=I Feel fine
TTITLE2=Come toghether
TTITLE3=Dear Prudence
TTITLE4=Revolution
TTITLE5=Get back
TTITLE6=Norwegian wood
TTITLE7=I've got a feeling
TTITLE8=Don't let me down
TTITLE9=You can't do that
TTITLE10=She's a woman
TTITLE11=In my life
EXTD=
EXTT0=
EXTT1=
EXTT2=
EXTT3=
EXTT4=
EXTT5=
EXTT6=
EXTT7=
EXTT8=
EXTT9=
EXTT10=
EXTT11=
PLAYORDER=
